#!Matlab matrix to amc conversion
:FULLY-SPECIFIED
:DEGREES
1
root 9.287220 16.950000 -34.276200 0.000000 0.000000 0.000000
lowerback 0.000000 0.000000 0.000000
upperback 0.000000 0.000000 0.000000
thorax 0.000000 0.000000 0.000000
lowerneck -16.000000 0.000000 0.000000
upperneck 21.000000 0.000000 0.000000
head 11.000000 0.000000 0.000000
rclavicle 0.000000 0.000000
rhumerus 0.000000 0.000000 0.000000
rradius 0.000000
rwrist 0.000000
rhand 0.000000 0.000000
rfingers 0.000000
rthumb 0.000000 0.000000
lclavicle 0.000000 0.000000
lhumerus 0.000000 0.000000 0.000000
lradius 0.000000
lwrist 0.000000
lhand 0.000000 0.000000
lfingers 0.000000
lthumb 0.000000 0.000000
rfemur 0.000000 0.000000 21.000000
rtibia 0.000000
rfoot 0.000000 0.000000
rtoes 0.000000
lfemur 0.000000 0.000000 -21.000000
ltibia 0.000000
lfoot 0.000000 0.000000
ltoes 0.000000
2
root 9.287220 16.950000 -34.276200 2.041612 1.634016 0.441708
lowerback 5.200916 -1.595972 -3.014690
upperback 2.193402 -2.266593 1.048053
thorax -0.443674 -1.139008 2.863272
lowerneck -13.109540 2.578522 -1.177081
upperneck 4.037715 3.703527 -2.230047
head 3.771281 1.757091 -0.323199
rclavicle -0.000000 0.000000
rhumerus -43.170913 -10.592873 -78.559884
rradius 20.498190
rwrist -3.441649
rhand -17.321710 16.996776
rfingers 7.125020
rthumb 8.904885 -12.672731
lclavicle -0.000000 0.000000
lhumerus -26.254084 -3.638085 87.780778
lradius 59.224306
lwrist 22.161805
lhand -21.509122 18.372871
lfingers 7.125020
lthumb 4.861991 48.236423
rfemur -28.468215 8.236326 15.553113
rtibia 27.198845
rfoot -14.515419 -12.805002
rtoes -10.835632
lfemur 9.469832 -4.814835 -29.839424
ltibia 15.391084
lfoot -16.183328 7.052432
ltoes -8.002887
3
root 9.273270 17.016600 -33.905900 1.839445 1.634016 0.085339
lowerback 4.917226 -1.767451 -3.112166
upperback 2.089742 -2.483378 1.196376
thorax -0.369984 -1.251324 3.070304
lowerneck -13.381045 2.565804 -1.239719
upperneck 4.281865 3.724160 -2.431873
head 3.911279 1.750992 -0.372858
rclavicle -0.000000 0.000000
rhumerus -44.362664 -13.028994 -76.040882
rradius 19.100286
rwrist -0.802893
rhand -17.100652 16.499647
rfingers 7.125020
rthumb 9.125054 -13.160954
lclavicle -0.000000 0.000000
lhumerus -27.213157 -3.352030 88.069013
lradius 59.193690
lwrist 21.689181
lhand -21.306578 18.386629
lfingers 7.125020
lthumb 5.060362 48.247556
rfemur -28.403429 7.848768 16.110590
rtibia 26.403731
rfoot -13.633534 -13.172053
rtoes -10.020254
lfemur 12.003134 -4.773409 -29.669242
ltibia 15.200283
lfoot -14.968393 6.723258
ltoes -10.766198
4
root 9.268420 17.025800 -33.555600 1.703151 1.634016 -0.075918
lowerback 4.640102 -1.928625 -3.154652
upperback 1.985267 -2.686794 1.337375
thorax -0.307869 -1.356598 3.253781
lowerneck -13.647023 2.552331 -1.292585
upperneck 4.532155 3.743993 -2.635027
head 4.054066 1.744337 -0.425493
rclavicle -0.000000 0.000000
rhumerus -45.424438 -15.283200 -73.684339
rradius 17.772915
rwrist 1.713017
rhand -16.882882 16.028118
rfingers 7.125020
rthumb 9.342010 -13.609678
lclavicle -0.000000 0.000000
lhumerus -28.168573 -3.043455 88.341404
lradius 59.096208
lwrist 21.202227
lhand -21.090869 18.420694
lfingers 7.125020
lthumb 5.271178 48.280639
rfemur -28.313245 7.664121 16.688845
rtibia 26.306361
rfoot -12.810180 -13.601656
rtoes -9.153596
lfemur 14.340436 -4.727285 -29.469370
ltibia 15.276916
lfoot -13.882665 6.401415
ltoes -13.204383
5
root 9.249270 17.016300 -33.220600 1.590097 1.634016 -0.208336
lowerback 4.365562 -2.086370 -3.149451
upperback 1.876887 -2.884556 1.486530
thorax -0.255228 -1.458667 3.426478
lowerneck -13.923992 2.537933 -1.338162
upperneck 4.791031 3.763286 -2.846870
head 4.201246 1.737047 -0.485000
rclavicle -0.000000 0.000000
rhumerus -46.469770 -17.609348 -71.277572
rradius 16.456462
rwrist 4.285876
rhand -16.664463 15.464920
rfingers 7.125020
rthumb 9.559673 -14.158225
lclavicle -0.000000 0.000000
lhumerus -29.227612 -2.706948 88.603426
lradius 58.927964
lwrist 20.691596
lhand -20.856039 18.476333
lfingers 7.125020
lthumb 5.500261 48.336919
rfemur -28.194060 7.637307 17.445079
rtibia 26.810316
rfoot -11.856806 -14.167137
rtoes -8.084598
lfemur 16.619016 -4.673165 -29.219727
ltibia 15.636434
lfoot -12.780085 6.083313
ltoes -15.743026
6
root 9.246830 17.017700 -32.897400 1.838793 1.634016 -0.032148
lowerback 4.327803 -1.979590 -1.791692
upperback 1.736060 -2.687641 1.875801
thorax -0.427371 -1.355039 3.098294
lowerneck -13.988094 2.573073 -1.191814
upperneck 5.000929 3.808638 -2.977178
head 4.308218 1.746633 -0.561675
rclavicle -0.000000 0.000000
rhumerus -45.888613 -18.130624 -70.917646
rradius 16.380826
rwrist 4.430294
rhand -16.697673 15.117262
rfingers 7.125020
rthumb 9.528446 -14.530320
lclavicle -0.000000 0.000000
lhumerus -30.997719 -0.221121 88.286317
lradius 53.406752
lwrist 19.473019
lhand -20.184387 19.594908
lfingers 7.125020
lthumb 6.150708 49.419348
rfemur -26.309775 7.575499 19.851566
rtibia 29.953362
rfoot -11.664139 -13.039034
rtoes -3.861878
lfemur 13.541798 -3.607522 -26.969903
ltibia 25.344877
lfoot -6.895170 5.217883
ltoes -19.360964
7
root 9.219480 17.016100 -32.563300 1.999861 1.634016 0.037585
lowerback 4.292171 -1.872259 -0.614556
upperback 1.605720 -2.491581 2.227486
thorax -0.588824 -1.252506 2.784733
lowerneck -14.038240 2.605357 -1.065140
upperneck 5.198619 3.847556 -3.043888
head 4.409801 1.754872 -0.604728
rclavicle -0.000000 0.000000
rhumerus -45.293730 -18.567660 -70.632060
rradius 16.333613
rwrist 4.505892
rhand -16.736180 14.888927
rfingers 7.125020
rthumb 9.492173 -14.775477
lclavicle -0.000000 0.000000
lhumerus -32.531962 2.197656 87.958382
lradius 48.186732
lwrist 18.294500
lhand -19.538117 20.697009
lfingers 7.125020
lthumb 6.776586 50.486550
rfemur -24.528265 7.477764 22.027399
rtibia 32.099707
rfoot -11.814363 -12.044160
rtoes -0.599052
lfemur 10.499163 -2.651183 -24.941542
ltibia 34.203220
lfoot -1.472065 4.388168
ltoes -21.759234
8
root 9.210440 16.998300 -32.235300 2.127012 1.634016 0.096803
lowerback 4.258138 -1.758151 0.551993
upperback 1.480039 -2.286239 2.568507
thorax -0.746545 -1.145566 2.467299
lowerneck -14.081449 2.635456 -0.947352
upperneck 5.386209 3.881280 -3.058926
head 4.507294 1.761949 -0.627116
rclavicle -0.000000 0.000000
rhumerus -44.635968 -18.948746 -70.408003
rradius 16.312891
rwrist 4.515862
rhand -16.781003 14.714699
rfingers 7.125020
rthumb 9.449896 -14.963729
lclavicle -0.000000 0.000000
lhumerus -33.995242 4.626918 87.606380
lradius 42.944265
lwrist 17.112989
lhand -18.897069 21.806898
lfingers 7.125020
lthumb 7.397390 51.561820
rfemur -22.720175 7.332033 24.202328
rtibia 33.908196
rfoot -12.337568 -10.987381
rtoes 2.453142
lfemur 7.212470 -1.666403 -22.901576
ltibia 43.123964
lfoot 4.001486 3.575969
ltoes -23.833140
9
root 9.216220 16.950400 -31.922700 2.005388 1.634016 0.105451
lowerback 4.709829 -1.519541 1.393119
upperback 1.577508 -1.912367 2.576693
thorax -0.933837 -0.961628 2.009816
lowerneck -14.178349 2.350625 -1.045311
upperneck 5.335819 3.510271 -2.591700
head 4.509761 1.595954 -0.484807
rclavicle -0.000000 0.000000
rhumerus -41.603760 -17.305026 -73.186252
rradius 17.701258
rwrist 1.699908
rhand -17.256493 14.682965
rfingers 7.125020
rthumb 8.992485 -15.020295
lclavicle -0.000000 0.000000
lhumerus -34.415292 7.796678 85.955242
lradius 36.008088
lwrist 15.417320
lhand -17.869153 22.800095
lfingers 7.125020
lthumb 8.386465 52.507938
rfemur -19.665228 6.394783 25.705276
rtibia 33.226969
rfoot -13.913902 -10.127295
rtoes 2.068704
lfemur 0.262950 -0.457650 -21.385272
ltibia 53.182049
lfoot 5.555344 7.742926
ltoes -18.036588
10
root 9.215440 16.883800 -31.609400 1.914907 1.634016 0.116206
lowerback 5.163317 -1.287698 2.214770
upperback 1.686740 -1.546173 2.580569
thorax -1.110419 -0.781610 1.556220
lowerneck -14.225034 2.075269 -1.145834
upperneck 5.257122 3.155203 -2.177874
head 4.499152 1.436303 -0.357836
rclavicle -0.000000 0.000000
rhumerus -38.718548 -15.677787 -75.931056
rradius 19.059646
rwrist -1.067881
rhand -17.749289 14.805229
rfingers 7.125020
rthumb 8.518645 -14.916858
lclavicle -0.000000 0.000000
lhumerus -34.743660 10.858326 84.387936
lradius 29.478825
lwrist 13.837381
lhand -16.895697 23.749201
lfingers 7.125020
lthumb 9.322951 53.411945
rfemur -16.713925 5.470650 27.135377
rtibia 32.509594
rfoot -15.469898 -9.263769
rtoes 1.643488
lfemur -6.429059 0.741787 -19.979162
ltibia 62.621333
lfoot 6.388012 11.785336
ltoes -12.593931
